<?xml version="1.0" standalone="no"?>
<!DOCTYPE svg PUBLIC "-//W3C//DTD SVG 1.1//EN"
  "http://www.w3.org/Graphics/SVG/1.1/DTD/svg11.dtd">
<svg version="1.1" xmlns="http://www.w3.org/2000/svg" xmlns:xlink="http://www.w3.org/1999/xlink" width="1920" height="1080" viewBox="-1040.888888888889 -32 1889.7777777777778 1063" id="ccdiagram"><filter id="grayscale"><feColorMatrix type="matrix" values="0.3333 0.3333 0.3333 0 0 0.3333 0.3333 0.3333 0 0 0.3333 0.3333 0.3333 0 0 0 0 0 1 0"></feColorMatrix></filter><defs><style type="text/css">@import url('https://fonts.googleapis.com/css?family=Open+Sans:400,700|Inconsolata:400');</style></defs><g><g pointer-events="auto"><g opacity="1"><g><g><polygon points="32 19, 736 426, 736 463, 256 740, 192 740, -512 333, -512 296, -32 19" fill="#ffffff" stroke-width="2" stroke="#818181"></polygon><polygon points="0 37, 704 444, 224 722, -480 315" fill="#e6e7e8" stroke-width="0" stroke="#818181"></polygon></g></g></g><g opacity="1"><g id="4c5d3548-148b-451f-be51-34feeea0f5cb"><svg x="48" y="268" overflow="visible"><g fill="#e8e8e8"><polygon points="0 0, 128 74, 64 111, -64 37" stroke="#e8e8e8" stroke-width="40"></polygon></g></svg></g></g><g opacity="1"><g id="3d72d7a5-b4b0-4005-bd9d-381523d7d2d1"><svg x="32" y="148" overflow="visible"><g fill="#e8e8e8"><polygon points="0 0, 336 194, 111 324, -225 130" stroke="#e8e8e8" stroke-width="40"></polygon></g></svg></g></g><g opacity="1"><g><g><polygon points="-512 333, 192 740, 192 777, -160 981, -224 981, -928 574, -928 537, -576 333" fill="#ffffff" stroke-width="2" stroke="#818181"></polygon><polygon points="-544 352, 160 759, -192 962, -896 555" fill="#9e9e9e" stroke-width="0" stroke="#818181"></polygon></g></g></g><g opacity="1"><g id="c8987e9b-d98a-4add-b94f-4c13eefc4fd4"><svg x="-32" y="111" overflow="visible"><g fill="#e8e8e8"><polygon points="0 0, 555 321, 364 431, -191 110" stroke="#e8e8e8" stroke-width="40"></polygon></g></svg></g></g></g><g pointer-events="auto"></g><g></g><g pointer-events="auto"><g opacity="1"><g id="2acf06f9-ab3d-4b1b-9a73-cc740f3eb0cb"><g><g><polygon points="-42 458, 22 458, 280 310, 280 273, -62 75, -351 242, -351 279" stroke="#2196f3" stroke-width="8" fill="none"></polygon></g><g><polygon points="-62 75, -94 57, -318 186, -318 223" stroke="#2196f3" stroke-width="8" fill="#2196f3"></polygon><text font-family="Inconsolata" font-size="20pt" font-weight="bold" fill="#ffffff" transform="translate(-102 88) matrix(0.707 -0.409 0.707 0.409 0 0)" text-anchor="end">EM VPS</text><g transform="translate(-94 61) matrix(0.707 0.409 -0.707 0.409 0 0)"><svg width="34" height="32" style="fill: rgb(255, 255, 255);"><svg xmlns="http://www.w3.org/2000/svg" width="34" height="32" viewBox="0 0 34 32"><path d="M34.286 20.571a6.858 6.858 0 0 1-6.857 6.857H8c-4.411 0-8-3.589-8-8a7.993 7.993 0 0 1 4.607-7.232c-.018-.25-.036-.518-.036-.768a9.137 9.137 0 0 1 9.143-9.143c3.821 0 7.089 2.339 8.464 5.679a4.439 4.439 0 0 1 2.964-1.107 4.58 4.58 0 0 1 4.571 4.571 4.49 4.49 0 0 1-.732 2.464c3.036.714 5.304 3.429 5.304 6.679z"></path></svg></svg></g></g></g></g></g></g><g></g><g pointer-events="auto"></g><g pointer-events="none"></g><g pointer-events="auto"><g><g cursor="cell"><line x1="-496" y1="435" x2="-107" y2="282" stroke="red" stroke-width="8" opacity="0"></line><line x1="-496" y1="435" x2="-107" y2="282" stroke="#000000" stroke-width="2" stroke-linecap="round"></line><polygon points="-96 278, -123 280, -111 283, -110 291, -96 278" stroke-linejoin="round" fill="#000000" stroke="#000000" stroke-width="1"></polygon></g></g><g><g cursor="cell"><line x1="-490" y1="679" x2="-630" y2="598" stroke="red" stroke-width="8" opacity="0"></line><line x1="-490" y1="679" x2="-630" y2="598" stroke="#000000" stroke-width="2" stroke-linecap="round"></line><polygon points="-640 592, -631 607, -628 599, -614 597, -640 592" stroke-linejoin="round" fill="#000000" stroke="#000000" stroke-width="1"></polygon></g></g><g><g cursor="cell"><line x1="-176" y1="490" x2="32" y2="370" stroke="red" stroke-width="8" opacity="0"></line><line x1="-176" y1="490" x2="32" y2="370" stroke="#000000" stroke-width="2" stroke-linecap="round"></line></g></g><g><g cursor="cell"><line x1="-352" y1="611" x2="-176" y2="490" stroke="red" stroke-width="8" opacity="0"></line><line x1="-352" y1="611" x2="-176" y2="490" stroke="#000000" stroke-width="2" stroke-linecap="round"></line></g></g><g><g cursor="cell"><line x1="-110" y1="251" x2="-179" y2="211" stroke="red" stroke-width="8" opacity="0"></line><line x1="-110" y1="251" x2="-179" y2="211" stroke="#000000" stroke-width="2" stroke-linecap="round"></line></g></g><g><g cursor="cell"><line x1="-608" y1="444" x2="-496" y2="435" stroke="red" stroke-width="8" opacity="0"></line><line x1="-608" y1="444" x2="-496" y2="435" stroke="#000000" stroke-width="2" stroke-linecap="round"></line></g></g><g><g cursor="cell"><line x1="176" y1="324" x2="192" y2="574" stroke="red" stroke-width="8" opacity="0"></line><line x1="176" y1="324" x2="192" y2="574" stroke="#000000" stroke-width="2" stroke-linecap="round"></line></g></g><g><g cursor="cell"><line x1="192" y1="574" x2="-352" y2="611" stroke="red" stroke-width="8" opacity="0"></line><line x1="192" y1="574" x2="-352" y2="611" stroke="#000000" stroke-width="2" stroke-linecap="round"></line></g></g></g><g pointer-events="auto"><g opacity="1"><g id="3bbb0960-423e-4ace-a654-ee1af533c273" transform="translate(0 0)"><svg x="95" y="194" height="139.076" width="97" viewBox="0 0 25.665 36.797"><path d="M4.457 2.682v4.836l4.187 2.418h8.376l4.188-2.418V2.682L17.02.265H8.644z" fill="none" stroke="#000" stroke-width=".269"></path><path d="M.269 5.1v4.836l8.375 4.836h8.376l8.376-4.836V5.1L17.02.265H8.644z" fill="#ececed" fill-rule="evenodd"></path><path d="M17.02 14.772l8.376-4.836v21.76l-8.376 4.837z" fill="#b8b8bb" fill-rule="evenodd"></path><path d="M8.644 14.772h8.376v21.76H8.644zM.269 9.936v21.76l8.375 4.837V14.772z" fill="#d2d2d4" fill-rule="evenodd"></path><g fill="none" stroke="#83838a"><path d="M.269 9.936l8.375 4.836h8.376l8.376-4.836M8.644 14.772v21.76M17.02 14.772v21.76" stroke-width=".26865"></path></g><path d="M8.644 14.772V9.936h8.376v4.836z" fill="none" stroke="#83838a" stroke-width=".269"></path><path d="M21.208 7.518V2.682L25.396 5.1v4.836" fill="#d2d2d4" fill-rule="evenodd" stroke="#83838a" stroke-width=".269"></path><path d="M25.396 9.936l-4.188-2.418-4.188 2.418v4.836z" fill="#d2d2d4" fill-rule="evenodd" stroke="#83838a" stroke-width=".269"></path><path d="M.269 9.936l4.188-2.418V2.682L.269 5.1z" fill="none" stroke="#83838a" stroke-width=".269"></path><path d="M8.644 14.772V9.936L4.457 7.518.269 9.936z" fill="none" stroke="#83838a" stroke-width=".269"></path><path d="M.269 5.1v26.597l8.375 4.836h8.376l8.376-4.836V5.1L17.02.265H8.644z" fill="none" stroke="#000000" stroke-width=".529"></path><g transform="scale(.30555 .17641) rotate(45 -330.011 -3086.77)"><circle cx="2136.157" cy="-1146.699" fill="#4286c5" r="19.092"></circle><path d="M2149.44-1150.405v11.77q0 .98-.697 1.676-.696.697-1.675.697h-21.821q-.979 0-1.675-.697-.697-.697-.697-1.675v-11.77q.652.725 1.498 1.29 5.366 3.646 7.367 5.114.845.622 1.372.971.526.349 1.4.711.876.363 1.631.364h.03q.755 0 1.63-.364.874-.363 1.401-.711t1.371-.971q2.52-1.823 7.383-5.115.845-.578 1.483-1.29zm0-4.358q0 1.171-.727 2.238-.726 1.067-1.809 1.823l-6.937 4.818q-.149.104-.63.453-.482.348-.8.563-.32.215-.772.482-.452.266-.852.4-.4.133-.741.133h-.03q-.34 0-.74-.133-.4-.134-.853-.4-.453-.267-.772-.482-.318-.215-.8-.563-.481-.349-.63-.453-1.349-.949-3.884-2.705-2.535-1.757-3.04-2.113-.918-.623-1.733-1.712-.816-1.09-.816-2.024 0-1.157.616-1.927.615-.77 1.756-.771h21.821q.964 0 1.668.696.704.697.704 1.675z" fill="#ffffff"></path></g></svg></g></g><g opacity="1"><g id="c9f2d11f-b01b-4b13-87dc-ac1a538ab035" transform="translate(0 0)"><svg x="-243" y="102" height="115.695" width="100.625" viewBox="0 0 26.624 30.611"><path d="M13.312.306v15l12.99-7.5z" fill="#4286c5" fill-rule="evenodd"></path><path d="M.322 7.806l12.99 7.5v-15z" fill="#26527b" fill-rule="evenodd"></path><path d="M13.312.306v15" fill="none" stroke="#b7d1e9" stroke-width=".265"></path><path d="M13.312 15.306l12.99-7.5-6.495 18.75-6.495 3.75z" fill="#26527b" fill-rule="evenodd"></path><path d="M.322 7.806l12.99 7.5v15l-6.495-3.75z" fill="#326ca2" fill-rule="evenodd"></path><path d="M.322 7.806l12.99 7.5 12.99-7.5-12.99 7.5v15" fill="none" stroke="#deeaf5" stroke-width=".265"></path><path d="M13.312.306l-12.99 7.5 6.495 18.75 6.495 3.75 6.495-3.75 6.495-18.75z" fill="none" stroke="#000000" stroke-width=".529"></path></svg></g></g><g opacity="1"><g id="df47a2d3-46fc-4487-a630-37017a6fb386" transform="translate(0 0)"><svg x="-110" y="215" height="108.05" width="123" viewBox="0 0 32.544 28.588"><path d="M10.115 6.02v14.218l7.873-4.318V1.474z" fill="#b8b8bb" fill-rule="evenodd" stroke="#83838a" stroke-width=".268"></path><path d="M.265 2.228l9.85 3.791v14.219l-9.85-8.531z" fill="#d2d2d4" fill-rule="evenodd" stroke="#83838a" stroke-width=".265"></path><path d="M10.115 6.02l7.873-4.546L3.548.332.265 2.228z" fill="#ececed" fill-rule="evenodd" stroke="#83838a" stroke-width=".265"></path><path d="M.265 11.707l9.85 8.53 7.873-4.317V1.474L3.392.271.265 2.076z" fill="none" stroke="#000000" stroke-width=".529"></path><path d="M22.429 3.65L14.22 8.39l14.828 10.397 3.231-1.866z" fill="#ececed" fill-rule="evenodd" stroke="#83838a" stroke-width=".268"></path><path d="M14.22 8.39V22.61l14.777 5.687.051-9.509z" fill="#d2d2d4" fill-rule="evenodd" stroke="#83838a" stroke-width=".265"></path><path d="M29.048 18.787l3.231-1.866V26.4l-3.282 1.897z" fill="#b8b8bb" fill-rule="evenodd" stroke="#83838a" stroke-width=".265"></path><path d="M22.429 3.65L14.22 8.39V22.61l14.777 5.687 3.282-1.897v-9.478z" fill="none" stroke="#000000" stroke-width=".529"></path><path d="M22.55 20.2l-1.83-.682v-.917q0-.507.268-.765t.646-.117q.38.142.647.6.268.458.268.964v.918zm-2.973-.65v2.752q0 .191.1.362.1.171.242.225l3.43 1.28q.143.053.243-.044.1-.096.1-.287v-2.752q0-.191-.1-.362-.1-.171-.243-.224l-.114-.043v-.917q0-.88-.471-1.686-.472-.807-1.13-1.052-.657-.245-1.129.21-.471.454-.471 1.333v.917l-.114-.042q-.143-.054-.243.043-.1.096-.1.287z" fill="#4286c5"></path></svg></g></g><g opacity="1"><g id="9b5d687f-7f28-4e42-863f-34afa3ff6f26" transform="translate(0 0)"><svg x="-536" y="506" height="95.068" width="63" viewBox="0 0 16.669 25.153"><path d="M16.668 22.903q0 1.64-.864 2.091-.865.451-2.297-.376L3.161 18.645q-1.433-.827-2.297-2.276Q.001 14.921 0 13.28q0-.723.042-1.39.042-.666.166-1.394.124-.727.313-1.302.19-.575.51-1.039.319-.464.733-.683.414-.22 1.012-.147.598.073 1.32.49.107.06.497.58.391.52.882 1.165.491.646 1.279 1.394.788.75 1.58 1.207.793.458 1.58.618.788.161 1.28.083.49-.079.881-.147.39-.069.497-.007.722.416 1.32 1.035.598.619 1.013 1.315.414.697.734 1.531t.509 1.627q.19.793.313 1.664.124.872.166 1.586.042.713.042 1.438zM12.88 8.51q0 2.173-1.332 2.942-1.332.769-3.214-.318-1.882-1.086-3.214-3.393Q3.79 5.434 3.79 3.26q0-2.173 1.331-2.942 1.332-.77 3.214.317t3.214 3.394q1.332 2.306 1.332 4.48z" fill="#000" stroke="#000000" stroke-width=".268"></path></svg></g></g><g opacity="1"><g id="7e40974a-c396-4561-a1fd-ba359964f342" transform="translate(0 0)"><svg x="-513" y="660" height="60.953" width="96" viewBox="0 0 25.4 16.127"><g transform="translate(228.84 -123.343)"><path d="M-203.706 130.267l-2.073-1.83-12.434 7.178-8.29-4.786" fill="none" stroke="#83838a" stroke-width=".266"></path><path d="M-218.213 135.615l-2.072 3.59h4.145zM-228.574 134.419l2.072-3.59-2.072 1.82z" fill="#d2d2d4" fill-rule="evenodd" stroke="#83838a" stroke-width=".266"></path><path d="M-203.706 132.026l-2.073-3.59 2.073 1.831z" fill="#b8b8bb" fill-rule="evenodd" stroke="#83838a" stroke-width=".266"></path><path d="M-226.502 130.83l8.29 4.785 12.433-7.179-8.289-4.786z" fill="#ececed" fill-rule="evenodd" stroke="#83838a" stroke-width=".266"></path><path d="M-228.574 134.419l2.072-3.59 8.29 4.786-2.073 3.59z" fill="#d2d2d4" fill-rule="evenodd" stroke="#83838a" stroke-width=".266"></path><path d="M-216.14 139.205l-2.073-3.59 12.434-7.179 2.073 3.59z" fill="#b8b8bb" fill-rule="evenodd" stroke="#83838a" stroke-width=".266"></path><path d="M-228.574 132.649v1.77l8.289 4.786h4.145l12.434-7.18v-1.758l-2.073-1.83-8.289-4.787-12.434 7.18z" fill="none" stroke="#000000" stroke-width=".532"></path><circle cx="4.736" cy="254.366" fill="#fafafa" r="3.463" stroke="#4286c5" stroke-width=".569" transform="scale(1.22449 .70755) rotate(45)"></circle><circle cx="4.736" cy="254.366" fill="#ececed" r=".836" stroke="#4286c5" stroke-width=".286" transform="scale(1.22449 .70755) rotate(45)"></circle></g></svg></g></g></g><g pointer-events="auto"><g opacity="1"><g id="4a48dd0d-d03a-4699-b02e-ca6a871c292a" transform="translate(0 0)"><svg x="-144" y="768" overflow="visible"><g transform="scale(1.415) matrix(0.707 0.409 -0.707 0.409 0 0)"><svg x="-100" y="-112.5" overflow="visible"><image xlink:href="https://images.cloudcraft.co/3164c6ce-eb59-4b69-931e-5be3d02a7dd4/Resource.jpeg" width="200" height="225"></image></svg></g></svg></g></g><g opacity="1"><g id="b30fbdc2-7521-4ac4-91d4-4762a6ed2567" transform="translate(0 0)"><svg x="336" y="509" overflow="visible"><g transform="scale(0.4245000000000002) matrix(0.707 0.409 -0.707 0.409 0 0)"><svg x="-300" y="-225" overflow="visible"><image xlink:href="https://images.cloudcraft.co/3164c6ce-eb59-4b69-931e-5be3d02a7dd4/prod-art-aws-600-width-1200.png" width="600" height="450"></image></svg></g></svg></g></g></g><g pointer-events="auto"><g opacity="1"><g id="1516ea5b-1355-4f4e-aefd-f819acc1cdfc" transform="translate(0 0)"><svg x="160" y="389" overflow="visible"><g transform=" "><circle cx="0" cy="0" fill="rgba(0, 0, 0, 0)" r="40"></circle><svg width="100" height="100" x="-50" y="-50" style="fill: rgb(255, 255, 255);"><svg data-name="Layer 1" xmlns="http://www.w3.org/2000/svg" width="100" height="100" viewBox="0 0 100 100"><path d="M85.23 58v3.19C85.23 67 78.85 73 71 73H29c-7.85 0-14.23-6-14.23-11.81V58z" fill="#9d5125"></path><path d="M41.89 26.9a18 18 0 0 1 16.42 10.56 9.14 9.14 0 0 1 14.29 7.18c7.1.59 12.63 7.44 12.63 12.88v1.18c0 5.85-6.38 11.78-14.26 11.78H29c-7.86 0-14.24-5.93-14.24-11.78v-1.17c0-4.51 3.79-10.71 9.12-12.25v-.51A17.94 17.94 0 0 1 41.89 26.9z" fill="#f58535"></path><path d="M32.42 47.81l-4.71 16.45h2.76l1.06-4h4.85l1 4h2.76l-4.33-16.45zM32 58.13L34 50l1.9 8.11zM51.99 60.66h-.04l-2.23-12.85h-2.78l-2.18 12.78h-.05l-2.17-12.78h-2.67l3.19 16.45h3.07l2.11-12.39h.05l2.13 12.39h3.06l3.29-16.45h-2.62l-2.16 12.85zM65.28 55.28l-1.79-.65C61.74 54 61 53.25 61 51.84a2.11 2.11 0 0 1 2.22-2.37 2.07 2.07 0 0 1 2.32 2.38v.35h2.65v-.37c0-1.7-.44-4.33-4.68-4.33-3.11 0-5.15 1.66-5.15 4.66 0 2.35 1 3.59 3.45 4.51l1.81.63A2.76 2.76 0 0 1 66 60.2a2.34 2.34 0 0 1-2.51 2.4c-1.83 0-2.71-1-2.71-3v-.42h-2.64v.39c0 2.3.93 5 5 5 3.34 0 5.48-1.45 5.48-4.95.03-2.25-1-3.52-3.34-4.34z" fill="#fff"></path></svg></svg></g></svg></g></g><g opacity="1"><g id="ee15dd98-dbdc-453b-a53c-9859b57bf9a2" transform="translate(0 0)"><svg x="-752" y="546" overflow="visible"><g transform="scale(2.729575167846423) matrix(0.707 0.409 -0.707 0.409 0 0)"><circle cx="0" cy="0" fill="#000000" r="23"></circle><svg width="27" height="32" x="-13.5" y="-16" style="fill: rgb(255, 255, 255);"><svg xmlns="http://www.w3.org/2000/svg" width="27" height="32" viewBox="0 0 27 32"><path d="M16 9.714v8c0 .321-.25.571-.571.571H9.715a.564.564 0 0 1-.571-.571v-1.143c0-.321.25-.571.571-.571h4V9.714c0-.321.25-.571.571-.571h1.143c.321 0 .571.25.571.571zM23.429 16c0-5.357-4.357-9.714-9.714-9.714S4.001 10.643 4.001 16s4.357 9.714 9.714 9.714 9.714-4.357 9.714-9.714zm4 0c0 7.571-6.143 13.714-13.714 13.714S.001 23.571.001 16 6.144 2.286 13.715 2.286 27.429 8.429 27.429 16z"></path></svg></svg></g></svg></g></g><g opacity="1"><g id="d604781d-25c5-4b69-9b60-f52eecee0953" transform="translate(0 0)"><svg x="192" y="574" overflow="visible"><g transform=" "><circle cx="0" cy="0" fill="rgba(0, 0, 0, 0)" r="40"></circle><svg width="100" height="100" x="-50" y="-50" style="fill: rgb(255, 255, 255);"><svg data-name="Layer 1" xmlns="http://www.w3.org/2000/svg" width="100" height="100" viewBox="0 0 100 100"><defs><clipPath id="a"><path d="M86 58.68v18.39H22.87V58.68z" fill="#876929"></path></clipPath><clipPath id="b"><path d="M29.9 33.41v2.36z" fill="#d9a741"></path></clipPath></defs><g><g><path d="M86 58.68v18.39H22.87V58.68z" fill="#876929"></path><g clip-path="url(#a)"><g style="isolation:isolate"><path d="M86 58.68v18.39H22.87V58.68H86" fill="#876929"></path></g></g></g><path d="M86 34.84v39.87H22.87v-24.5a15.35 15.35 0 0 0 3 .29 15.08 15.08 0 0 0 11.52-5.32L54 56z" fill="#d9a741"></path><path d="M38.52 40.94v2.36L54 53.2l29.54-19.53v-2.36z" fill="#876929"></path><path d="M40.84 31.31h42.7L54 50.83l-15.5-9.89a14.86 14.86 0 0 0 2.41-8.09 12.9 12.9 0 0 0-.07-1.54z" fill="#d9a741"></path><g style="isolation:isolate"><g style="isolation:isolate"><path d="M29.9 33.41v2.36z" fill="#d9a741"></path><g clip-path="url(#b)"><g style="isolation:isolate"><path d="M29.9 33.41v3.01-2.36-.65" fill="#d9a741"></path></g></g></g><path d="M36.49 28.38A11.92 11.92 0 0 1 37 38a7.19 7.19 0 0 1-3.53 4.07 3.59 3.59 0 0 1-1.78.44 4.78 4.78 0 0 1-3.94-2.06c-.12-.18-.23-.35-.39-.57a4.23 4.23 0 0 1-3.51 1.54 3 3 0 0 1-3.19-3.3 3.6 3.6 0 0 1 2.27-3.45 15 15 0 0 1 4-.73v-.28a2.73 2.73 0 0 0-.26-1.53 1.45 1.45 0 0 0-1.21-.55 1.62 1.62 0 0 0-1.71 1.27.44.44 0 0 1-.37.38L21.31 33a.38.38 0 0 1-.32-.44c.48-2.49 2.73-3.24 4.77-3.24A4.85 4.85 0 0 1 29 30.43c1 .95.93 2.24.93 3.63v3.3a2.83 2.83 0 0 0 .78 1.93 1.35 1.35 0 0 0 .82.28c1 0 2.14-1 2.76-2.58a9.27 9.27 0 0 0-.18-7.31c-1.45-2.7-4.88-4.22-8.24-4.22a9.12 9.12 0 0 0-5.37 1.6 10.43 10.43 0 0 0-2.53 14.07 10.27 10.27 0 0 0 8.75 4.54 10.94 10.94 0 0 0 5.6-1.52.89.89 0 0 1 .47-.13.91.91 0 0 1 .79.46.89.89 0 0 1-.36 1.22 12.48 12.48 0 0 1-6.69 1.87 12.23 12.23 0 0 1-10.32-5.26 12.64 12.64 0 0 1 2.86-17.2A11.34 11.34 0 0 1 26 22.93a13 13 0 0 1 2.43.23 11 11 0 0 1 8.06 5.22zm-10 10a4.13 4.13 0 0 0 .4-2.24v-.45c-1.54 0-3.17.32-3.17 2.12 0 .92.47 1.54 1.29 1.54a1.71 1.71 0 0 0 1.47-1" fill="#d9a741"></path></g></g></svg></svg></g></svg></g></g><g opacity="1"><g id="08811b48-3299-4f94-a3b4-16067aff8cad" transform="translate(0 0)"><svg x="-608" y="444" overflow="visible"><g transform="scale(1.953125) "><circle cx="0" cy="0" fill="#8ed1fc" r="40"></circle><svg width="100" height="100" x="-50" y="-50" style="fill: rgb(255, 255, 255);"><svg data-name="Layer 1" xmlns="http://www.w3.org/2000/svg" width="100" height="100" viewBox="0 0 100 100"><path d="M55.77 24.34a3 3 0 0 1 3 3l11.75 45v2.78a3 3 0 0 1-3 3h-35a3 3 0 0 1-3-3v-2.51l13.19-45.26a3 3 0 0 1 3-3z" fill="#4f4f4f"></path><path d="M67.52 21.86a3 3 0 0 1 3 3v47.75a3 3 0 0 1-3 3h-35a3 3 0 0 1-3-3V24.87a3 3 0 0 1 3-3z" fill="#7d7c7c"></path><path d="M64.11 44.6H35.88v-3.32h28.23zm0-5.61H35.88v-3.32h28.23zm0-5.87H35.88V29.8h28.23z" fill="#fff"></path></svg></svg></g></svg></g></g><g opacity="1"><g id="067fc83d-0225-499c-ab58-0ca10940df03" transform="translate(0 0)"><svg x="-640" y="592" overflow="visible"><g transform="scale(1.5625) "><circle cx="0" cy="0" fill="rgba(0, 0, 0, 0)" r="40"></circle><svg width="100" height="100" x="-50" y="-50" style="fill: rgb(255, 255, 255);"><svg data-name="Layer 1" xmlns="http://www.w3.org/2000/svg" width="100" height="100" viewBox="0 0 100 100"><g><path fill="#8c3123" d="M25.57 78.79l-9.53-4.76V25.97l9.53-4.76 16.96 30.45-16.96 27.13z"></path><path fill="#e05243" d="M31.91 76.9l-6.34 1.89V21.21l6.34 1.72 12.61 28.23L31.91 76.9z"></path><path fill="#8c3123" d="M49.99 69.19l29.63 7 2.92-46.44-38.02 1.16 5.47 38.28z"></path><path fill="#5e1f18" d="M51.76 36.15l6.58 1.13 21.28-2.99-20.49-14.17-7.18 9.45-.19 6.58z"></path><path fill="#8c3123" d="M31.91 81.96L50 91l5.76-39.51L50 9l-18.09 9.04v63.92z"></path><path fill="#e05243" d="M83.96 25.98l-.02-.01-4.32-2.16L50 9v82l10.16-5.08V28.45l19.46 5.84v41.9l4.32-2.16V35.58l.02.01v-9.61z"></path></g></svg></svg></g></svg></g></g><g opacity="1"><g id="4539478d-ddbf-475a-9d06-e92556ede3a0" transform="translate(0 0)"><svg x="-176" y="490" overflow="visible"><g transform="scale(1.953125) "><circle cx="0" cy="0" fill="rgba(0, 0, 0, 0)" r="40"></circle><svg width="100" height="100" x="-50" y="-50" style="fill: rgb(255, 255, 255);"><svg data-name="Layer 1" xmlns="http://www.w3.org/2000/svg" width="100" height="100" viewBox="0 0 100 100"><g><circle cx="38.81" cy="51.24" r="10.76" fill="#4b612c"></circle><path fill="#4b612c" d="M42.45 46.67h12.46l1.12 1.96 4.21-.4 1.62 1.66 1.48.33 8.61-1.12v2.48l-2.62 4.23H42.45v-9.14zM28.05 48.76h10.36v2.81H28.05z"></path><circle cx="38.81" cy="48.76" r="10.76" fill="#759c3e"></circle><circle cx="34.1" cy="48.76" r="2.81" fill="#fff"></circle><path fill="#759c3e" d="M42.45 44.19h12.46l1.12 1.96 4.21-.39 1.62 1.65 1.48.33 3.84-2.3 4.77 3.66-2.62 4.23H42.45v-9.14z"></path></g></svg></svg></g></svg></g></g><g opacity="1"><g id="3039fa2b-7d4b-4444-aa98-0dace227b32e" transform="translate(0 0)"><svg x="-496" y="435" overflow="visible"><g transform=" "><circle cx="0" cy="0" fill="rgba(0, 0, 0, 0)" r="40"></circle><svg width="100" height="100" x="-50" y="-50" style="fill: rgb(255, 255, 255);"><svg data-name="Layer 1" xmlns="http://www.w3.org/2000/svg" width="100" height="100" viewBox="0 0 100 100"><g><circle cx="50" cy="51.25" r="30.43" fill="#4b612c"></circle><circle cx="50" cy="48.75" r="30.43" fill="#759c3e"></circle><path fill="#fff" d="M72.38 36.09H27.63l17.82 17.82V72.5l9.1-9.25v-9.34l17.83-17.82z"></path></g></svg></svg></g></svg></g></g><g opacity="1"><g id="4d03ef85-c574-45e3-8399-a290e7b2b3fc" transform="translate(0 0)"><svg x="-336" y="361" overflow="visible"><g transform="scale(1.953125) "><circle cx="0" cy="0" fill="rgba(0, 0, 0, 0)" r="40"></circle><svg width="100" height="100" x="-50" y="-50" style="fill: rgb(255, 255, 255);"><svg data-name="Layer 1" xmlns="http://www.w3.org/2000/svg" width="100" height="100" viewBox="0 0 100 100"><g><path d="M67.38 23.33a3 3 0 0 1 3 3v47.4a3 3 0 0 1-3 3H32.62a3 3 0 0 1-3-3V26.29a3 3 0 0 1 3-3h34.76z" fill="#d2d3d3"></path><path d="M63.25 59.75v-6.14a8.16 8.16 0 0 0-16.2 0v6.14h-4.2v13.61h24.47V59.75zm-4 0H51v-6.14a3.81 3.81 0 0 1 4.17-3.75 4 4 0 0 1 4.17 3.75z" fill="#373737"></path><path d="M40.71 25.59a8.34 8.34 0 1 0 8.34 8.34 8.34 8.34 0 0 0-8.34-8.34zm0 6.87a2.18 2.18 0 1 1 2.18-2.18 2.18 2.18 0 0 1-2.18 2.18z" fill="#7d7c7c"></path><path fill="#7d7c7c" d="M44.25 36.75v9.66l-1.52.87.31 3.26-1.29 1.26-.25 1.14 1.78 2.98-2.83 3.7-3.29-2.04V36.75h7.09z"></path></g></svg></svg></g></svg></g></g><g opacity="1"><g id="a336ff72-1f9a-4e49-aedd-a625f00ef8e5" transform="translate(0 0)"><svg x="32" y="370" overflow="visible"><g transform="scale(1.5625) "><circle cx="0" cy="0" fill="rgba(0, 0, 0, 0)" r="40"></circle><svg width="100" height="100" x="-50" y="-50" style="fill: rgb(255, 255, 255);"><svg data-name="Layer 1" xmlns="http://www.w3.org/2000/svg" width="100" height="100" viewBox="0 0 100 100"><path d="M71.68 70.3H54.07a1.7 1.7 0 0 0-1.71 1.7h21a1.69 1.69 0 0 0-1.68-1.7zM54.07 73.68h17.61A1.69 1.69 0 0 0 73.37 72h-21a1.7 1.7 0 0 0 1.7 1.68z" fill="none"></path><path d="M73.37 72a1.69 1.69 0 0 1-1.69 1.69H54.07A1.7 1.7 0 0 1 52.36 72H22.2v1.69a4.23 4.23 0 0 0 4.23 4.23h47.12a4.24 4.24 0 0 0 4.25-4.23V72zM75.94 51.88l-2.73 3a1.93 1.93 0 0 1-1.93 1.92H28.66a1.93 1.93 0 0 1-1.92-1.92l-2.3-3h-2.2v3a6.41 6.41 0 0 0 6.42 6.39h42.62a6.42 6.42 0 0 0 6.43-6.39v-3z" fill="#9d5125"></path><path d="M73.55 63.59a4.22 4.22 0 0 1 4.25 4.21v3.4a4.24 4.24 0 0 1-4.25 4.23H26.44a4.23 4.23 0 0 1-4.24-4.23v-3.39a4.22 4.22 0 0 1 4.23-4.21zm-1.87 7.61a1.69 1.69 0 1 0 0-3.38H54.07a1.69 1.69 0 1 0 0 3.38h17.61M71.28 22.15a6.42 6.42 0 0 1 6.43 6.38v23.86a6.42 6.42 0 0 1-6.43 6.39H28.66a6.41 6.41 0 0 1-6.42-6.39V28.54a6.41 6.41 0 0 1 6.42-6.38zm1.93 30.24V28.54a1.92 1.92 0 0 0-1.93-1.92H28.66a1.92 1.92 0 0 0-1.92 1.92v23.85a1.93 1.93 0 0 0 1.92 1.92h42.62a1.93 1.93 0 0 0 1.93-1.92" fill="#f58535"></path></svg></svg></g></svg></g></g><g opacity="1"><g id="6f565d99-50ee-478c-9e3e-973d411e965f" transform="translate(0 0)"><svg x="-352" y="611" overflow="visible"><g transform="scale(1.953125) "><circle cx="0" cy="0" fill="#8ed1fc" r="40"></circle><svg width="100" height="100" x="-50" y="-50" style="fill: rgb(255, 255, 255);"><svg data-name="Layer 1" xmlns="http://www.w3.org/2000/svg" width="100" height="100" viewBox="0 0 100 100"><path d="M71.68 70.3H54.07a1.7 1.7 0 0 0-1.71 1.7h21a1.69 1.69 0 0 0-1.68-1.7zM54.07 73.68h17.61A1.69 1.69 0 0 0 73.37 72h-21a1.7 1.7 0 0 0 1.7 1.68z" fill="none"></path><path d="M73.37 72a1.69 1.69 0 0 1-1.69 1.69H54.07A1.7 1.7 0 0 1 52.36 72H22.2v1.69a4.23 4.23 0 0 0 4.23 4.23h47.12a4.24 4.24 0 0 0 4.25-4.23V72zM75.94 51.88l-2.73 3a1.93 1.93 0 0 1-1.93 1.92H28.66a1.93 1.93 0 0 1-1.92-1.92l-2.3-3h-2.2v3a6.41 6.41 0 0 0 6.42 6.39h42.62a6.42 6.42 0 0 0 6.43-6.39v-3z" fill="#7d7c7c"></path><path d="M73.55 63.59a4.22 4.22 0 0 1 4.25 4.21v3.4a4.24 4.24 0 0 1-4.25 4.23H26.44a4.23 4.23 0 0 1-4.24-4.23v-3.39a4.22 4.22 0 0 1 4.23-4.21zm-1.87 7.61a1.69 1.69 0 1 0 0-3.38H54.07a1.69 1.69 0 1 0 0 3.38h17.61M71.28 22.15a6.42 6.42 0 0 1 6.43 6.38v23.86a6.42 6.42 0 0 1-6.43 6.39H28.66a6.41 6.41 0 0 1-6.42-6.39V28.54a6.41 6.41 0 0 1 6.42-6.38zm1.93 30.24V28.54a1.92 1.92 0 0 0-1.93-1.92H28.66a1.92 1.92 0 0 0-1.92 1.92v23.85a1.93 1.93 0 0 0 1.92 1.92h42.62a1.93 1.93 0 0 0 1.93-1.92" fill="#d2d3d3"></path></svg></svg></g></svg></g></g><g opacity="1"><g id="bcd1df2c-68f1-4153-bfe5-75383ace586f" transform="translate(0 0)"><svg x="-16" y="120" overflow="visible"><g transform="scale(1.953125) "><circle cx="0" cy="0" fill="rgba(0, 0, 0, 0)" r="40"></circle><svg width="100" height="100" x="-50" y="-50" style="fill: rgb(255, 255, 255);"><svg data-name="Layer 1" xmlns="http://www.w3.org/2000/svg" width="100" height="100" viewBox="0 0 100 100"><g><path fill="#4b612c" d="M27.72 42.83h10.71v26.44H27.72zM44.65 47.98h10.71v21.29H44.65zM74.22 73.46v5.66H25.77v-5.66zM61.57 39.65v29.62h10.71V39.65a11.2 11.2 0 0 1-10.71 0z"></path><path fill="#759c3e" d="M27.72 40.35h10.71v26.44H27.72zM44.65 45.5h10.71v21.29H44.65zM74.22 70.98v5.66H25.77v-5.66zM61.57 37.17v29.62h10.71V37.17a11.2 11.2 0 0 1-10.71 0z"></path><path d="M73.38 29.82a6.46 6.46 0 0 1-12.93 0v-2.48l6.46-4 6.46 4z" fill="#8d090a"></path><circle cx="66.92" cy="27.34" r="6.46" fill="#ea2227"></circle></g></svg></svg></g></svg></g></g></g><g pointer-events="auto"><g opacity="1"><g id="768325d7-f6f8-400f-8698-7c97cc818e70" transform="translate(0 0)"><svg x="-832" y="555" overflow="visible"><text stroke="#ffffff" stroke-width="4" font-family="Open Sans" y="36.5" font-size="25pt" fill="#f5b720" font-weight="bold" transform="matrix(0.707 0.409 -0.707 0.409 0 0)" xml:space="preserve"><tspan x="8" dy="0">Onsite computing resources</tspan></text><text font-family="Open Sans" y="36.5" font-size="25pt" fill="#f5b720" font-weight="bold" transform="matrix(0.707 0.409 -0.707 0.409 0 0)" xml:space="preserve"><tspan x="8" dy="0">Onsite computing resources</tspan></text></svg></g></g><g opacity="1"><g id="ad3f51af-61e9-4ed7-ae97-483ccb4e583c" transform="translate(0 0)"><svg x="-304" y="268" overflow="visible"><text stroke="#ffffff" stroke-width="4" font-family="Open Sans" y="36.5" font-size="25pt" fill="#f5b720" font-weight="bold" transform="matrix(0.707 0.409 -0.707 0.409 0 0)" xml:space="preserve"><tspan x="8" dy="0">Amazon Web Services Elastic Cloud</tspan></text><text font-family="Open Sans" y="36.5" font-size="25pt" fill="#f5b720" font-weight="bold" transform="matrix(0.707 0.409 -0.707 0.409 0 0)" xml:space="preserve"><tspan x="8" dy="0">Amazon Web Services Elastic Cloud</tspan></text></svg></g></g></g><g></g></g></svg>